<svg width="9" height="7" viewBox="0 0 9 7" fill="none" xmlns="http://www.w3.org/2000/svg">
<path d="M8.83303 5.86455C8.94437 5.75327 9 5.62139 9 5.46907C9 5.31672 8.94437 5.18484 8.83303 5.07355L4.89553 1.13609C4.78418 1.0248 4.6524 0.969116 4.50005 0.969116C4.3477 0.969116 4.21582 1.0248 4.10456 1.13609L0.167067 5.07355C0.0557211 5.18481 -2.78466e-05 5.31669 -2.78533e-05 5.46907C-2.78599e-05 5.62139 0.0557211 5.75327 0.167067 5.86455C0.278321 5.9759 0.4102 6.03162 0.56255 6.03162L8.43754 6.03162C8.58989 6.03159 8.72165 5.9759 8.83303 5.86455Z" fill="#A5A5A5"/>
</svg>
